<?xml version="1.0" encoding="iso-8859-1"?>
<!-- Generator: Adobe Illustrator 19.0.0, SVG Export Plug-In . SVG Version: 6.00 Build 0)  -->
<svg version="1.1" id="Layer_1" xmlns="http://www.w3.org/2000/svg" xmlns:xlink="http://www.w3.org/1999/xlink" x="0px" y="0px"
	 viewBox="0 0 512 512" style="enable-background:new 0 0 512 512;" xml:space="preserve">
<path style="fill:#FF5023;" d="M255.999,512c-2.954,0-5.737-1.144-7.835-3.221l-47.332-46.876l-64.437,16.927
	c-0.946,0.25-1.903,0.376-2.857,0.376c-4.984,0-9.387-3.374-10.709-8.205l-17.559-64.27L41,389.171
	c-5.86-1.601-9.372-7.687-7.829-13.566l16.927-64.436L3.222,263.836c-4.272-4.319-4.272-11.349,0.002-15.67l46.875-47.331
	l-16.927-64.437c-1.544-5.878,1.969-11.964,7.829-13.566l64.27-17.559l17.56-64.27c1.32-4.828,5.728-8.201,10.717-8.201
	c0.952,0,1.909,0.125,2.843,0.371l64.442,16.927l47.333-46.877C250.265,1.145,253.048,0,255.999,0s5.734,1.145,7.835,3.223
	l47.332,46.876l64.437-16.927c0.939-0.247,1.9-0.372,2.854-0.372c4.99,0,9.394,3.371,10.711,8.199l17.56,64.272l64.27,17.56
	c5.86,1.601,9.372,7.687,7.829,13.566l-16.927,64.436l46.877,47.333c4.272,4.319,4.272,11.349-0.002,15.67L461.9,311.168
	l16.927,64.437c1.544,5.878-1.969,11.964-7.829,13.566l-64.27,17.56l-17.56,64.27c-1.318,4.832-5.719,8.205-10.703,8.205
	c-0.955,0-1.916-0.126-2.854-0.374l-64.445-16.928l-47.333,46.877C261.736,510.857,258.953,512,255.999,512z"/>
</svg>
