<?xml version="1.0" standalone="no"?>
<!DOCTYPE svg PUBLIC "-//W3C//DTD SVG 20010904//EN"
 "http://www.w3.org/TR/2001/REC-SVG-20010904/DTD/svg10.dtd">
<svg version="1.0" xmlns="http://www.w3.org/2000/svg"
 width="64.000000pt" height="64.000000pt" viewBox="0 0 64.000000 64.000000"
 preserveAspectRatio="xMidYMid meet">

<g transform="translate(0.000000,64.000000) scale(0.100000,-0.100000)"
fill="#000000" stroke="none">
<path d="M187 593 c-4 -3 -7 -81 -7 -173 l0 -166 33 -32 c31 -30 37 -32 108
-32 72 0 76 1 107 33 l32 33 -2 170 -3 169 -36 3 c-30 2 -37 -1 -42 -17 -4
-18 -13 -21 -57 -21 -43 0 -53 3 -57 20 -4 15 -14 20 -37 20 -18 0 -36 -3 -39
-7z m228 -123 l0 -45 -95 0 -95 0 -3 33 c-6 61 -2 63 100 60 l93 -3 0 -45z
m-175 -90 c0 -5 -4 -10 -10 -10 -5 0 -10 5 -10 10 0 6 5 10 10 10 6 0 10 -4
10 -10z m180 0 c0 -6 -33 -10 -80 -10 -47 0 -80 4 -80 10 0 6 33 10 80 10 47
0 80 -4 80 -10z m0 -40 c0 -6 -40 -10 -100 -10 -60 0 -100 4 -100 10 0 6 40
10 100 10 60 0 100 -4 100 -10z m0 -40 c0 -6 -40 -10 -100 -10 -60 0 -100 4
-100 10 0 6 40 10 100 10 60 0 100 -4 100 -10z m0 -40 c0 -6 -40 -10 -100 -10
-60 0 -100 4 -100 10 0 6 40 10 100 10 60 0 100 -4 100 -10z"/>
<path d="M240 470 l0 -30 80 0 80 0 0 30 0 30 -80 0 -80 0 0 -30z"/>
<path d="M280 590 c0 -5 18 -10 40 -10 22 0 40 5 40 10 0 6 -18 10 -40 10 -22
0 -40 -4 -40 -10z"/>
<path d="M100 337 c0 -2 14 -16 30 -32 l30 -29 0 32 c0 29 -3 32 -30 32 -16 0
-30 -1 -30 -3z"/>
<path d="M480 308 l0 -32 30 29 c17 16 30 30 30 32 0 2 -13 3 -30 3 -27 0 -30
-3 -30 -32z"/>
<path d="M80 200 l0 -125 62 63 63 62 -63 62 -62 63 0 -125z"/>
<path d="M495 260 l-60 -60 63 -63 62 -62 0 123 c0 67 -1 122 -3 122 -1 0 -29
-27 -62 -60z"/>
<path d="M143 108 l-67 -68 244 0 245 0 -66 66 -66 66 -112 2 -112 1 -66 -67z"/>
</g>
</svg>
